<?xml version="1.0" encoding="UTF-8"?>
<svg width="40px" height="40px" viewBox="0 0 40 40" version="1.1" xmlns="http://www.w3.org/2000/svg" xmlns:xlink="http://www.w3.org/1999/xlink">
    <!-- Generator: Sketch 48.2 (47327) - http://www.bohemiancoding.com/sketch -->
    <title>instagram</title>
    <desc>Created with Sketch.</desc>
    <defs></defs>
    <g id="FOOTER-klein" stroke="none" stroke-width="1" fill="none" fill-rule="evenodd" transform="translate(-1065.000000, -62.000000)">
        <g id="FOOTER-Copy">
            <g id="instagram" transform="translate(1065.000000, 62.000000)">
                <path d="M23.5714436,20.1428478 C23.5714436,18.4118189 22.1596115,16.9999869 20.4285827,16.9999869 C18.6975538,16.9999869 17.2857218,18.4118189 17.2857218,20.1428478 C17.2857218,21.8738766 18.6975538,23.2857087 20.4285827,23.2857087 C22.1596115,23.2857087 23.5714436,21.8738766 23.5714436,20.1428478 Z M25.265642,20.1428478 C25.265642,22.8191903 23.1049251,24.9799071 20.4285827,24.9799071 C17.7522402,24.9799071 15.5915233,22.8191903 15.5915233,20.1428478 C15.5915233,17.4665053 17.7522402,15.3057884 20.4285827,15.3057884 C23.1049251,15.3057884 25.265642,17.4665053 25.265642,20.1428478 Z M26.5915364,15.1093596 C26.5915364,15.7354765 26.0881876,16.2388253 25.4620708,16.2388253 C24.835954,16.2388253 24.3326052,15.7354765 24.3326052,15.1093596 C24.3326052,14.4832428 24.835954,13.979894 25.4620708,13.979894 C26.0881876,13.979894 26.5915364,14.4832428 26.5915364,15.1093596 Z M20.4285827,12.4084636 C19.053581,12.4084636 16.1071489,12.2979724 14.8671921,12.7890444 C14.4375041,12.9609196 14.1183073,13.1696252 13.7868337,13.5010988 C13.4553601,13.8325724 13.2466545,14.1517692 13.0747793,14.5814572 C12.5837072,15.8214141 12.6941984,18.7678461 12.6941984,20.1428478 C12.6941984,21.5178494 12.5837072,24.4642815 13.0747793,25.7042383 C13.2466545,26.1339263 13.4553601,26.4531232 13.7868337,26.7845968 C14.1183073,27.1160704 14.4375041,27.324776 14.8671921,27.4966512 C16.1071489,27.9877232 19.053581,27.877232 20.4285827,27.877232 C21.8035843,27.877232 24.7500164,27.9877232 25.9899732,27.4966512 C26.4196612,27.324776 26.738858,27.1160704 27.0703317,26.7845968 C27.4018053,26.4531232 27.6105109,26.1339263 27.7823861,25.7042383 C28.2734581,24.4642815 28.1629669,21.5178494 28.1629669,20.1428478 C28.1629669,18.7678461 28.2734581,15.8214141 27.7823861,14.5814572 C27.6105109,14.1517692 27.4018053,13.8325724 27.0703317,13.5010988 C26.738858,13.1696252 26.4196612,12.9609196 25.9899732,12.7890444 C24.7500164,12.2979724 21.8035843,12.4084636 20.4285827,12.4084636 Z M29.8571653,20.1428478 C29.8571653,21.4441886 29.8694421,22.7332527 29.7957813,24.0345935 C29.7221205,25.5446399 29.3783701,26.8828112 28.2734581,27.9877232 C27.1685461,29.0926352 25.8303748,29.4363856 24.3203284,29.5100464 C23.0189875,29.5837072 21.7299235,29.5714304 20.4285827,29.5714304 C19.1272418,29.5714304 17.8381778,29.5837072 16.536837,29.5100464 C15.0267905,29.4363856 13.6886193,29.0926352 12.5837072,27.9877232 C11.4787952,26.8828112 11.1350448,25.5446399 11.061384,24.0345935 C10.9877232,22.7332527 11,21.4441886 11,20.1428478 C11,18.8415069 10.9877232,17.5524429 11.061384,16.2511021 C11.1350448,14.7410556 11.4787952,13.4028844 12.5837072,12.2979724 C13.6886193,11.1930603 15.0267905,10.8493099 16.536837,10.7756491 C17.8381778,10.7019883 19.1272418,10.7142651 20.4285827,10.7142651 C21.7299235,10.7142651 23.0189875,10.7019883 24.3203284,10.7756491 C25.8303748,10.8493099 27.1685461,11.1930603 28.2734581,12.2979724 C29.3783701,13.4028844 29.7221205,14.7410556 29.7957813,16.2511021 C29.8694421,17.5524429 29.8571653,18.8415069 29.8571653,20.1428478 Z" id="" fill="#000000"></path>
                <rect id="Rectangle-Copy-2" stroke="#000000" x="0.5" y="0.5" width="39" height="39"></rect>
            </g>
        </g>
    </g>
</svg>