<?xml version="1.0" encoding="UTF-8"?>
<svg width="40px" height="40px" viewBox="0 0 40 40" version="1.1" xmlns="http://www.w3.org/2000/svg" xmlns:xlink="http://www.w3.org/1999/xlink">
    <!-- Generator: Sketch 48.2 (47327) - http://www.bohemiancoding.com/sketch -->
    <title>pinterest</title>
    <desc>Created with Sketch.</desc>
    <defs></defs>
    <g id="FOOTER-klein" stroke="none" stroke-width="1" fill="none" fill-rule="evenodd" transform="translate(-1115.000000, -62.000000)">
        <g id="FOOTER-Copy">
            <g id="pinterest" transform="translate(1115.000000, 62.000000)">
                <path d="M12,17.4720845 C12,12.9419451 16.1495585,10.1428347 20.3482242,10.1428347 C24.2031395,10.1428347 27.7143044,12.7946235 27.7143044,16.8582445 C27.7143044,20.6763294 25.7622932,24.9118255 21.4163059,24.9118255 C20.3850546,24.9118255 19.0837138,24.3961999 18.580365,23.4386094 C17.6473282,27.1339263 17.720989,27.6863824 15.6584865,30.5100464 L15.4866113,30.5714304 L15.3761201,30.4486624 C15.3024593,29.675224 15.1919681,28.9140624 15.1919681,28.140624 C15.1919681,25.6361567 16.3459873,22.0145006 16.9107201,19.5836941 C16.6038001,18.9575773 16.5178625,18.1964157 16.5178625,17.5089149 C16.5178625,16.268958 17.3772386,14.6975276 18.7767938,14.6975276 C19.808045,14.6975276 20.360501,15.4832428 20.360501,16.45311 C20.360501,18.0490941 19.2801426,19.5468637 19.2801426,21.0937406 C19.2801426,22.1495454 20.1517954,22.8861534 21.1707699,22.8861534 C23.9944339,22.8861534 24.8660868,18.8102557 24.8660868,16.637262 C24.8660868,13.7276604 22.8035843,12.1439531 20.0167506,12.1439531 C16.7756753,12.1439531 14.2712081,14.4765452 14.2712081,17.7667277 C14.2712081,19.3504349 15.2410753,20.1607037 15.2410753,20.5412846 C15.2410753,20.8604814 15.0078161,21.989947 14.6026817,21.989947 C14.5412977,21.989947 14.4553601,21.9653934 14.3939761,21.9531166 C12.6383936,21.4252142 12,19.0803453 12,17.4720845 Z" id="" fill="#000000"></path>
                <rect id="Rectangle" stroke="#000000" x="0.5" y="0.5" width="39" height="39"></rect>
            </g>
        </g>
    </g>
</svg>